<svg width="96" height="93" viewBox="0 0 96 93" fill="none" xmlns="http://www.w3.org/2000/svg">
<path d="M47.875 1C21.9867 1 1 21.3151 1 46.375C1 71.4351 21.9867 91.75 47.875 91.75C73.7635 91.75 94.75 71.4351 94.75 46.375C94.75 21.3151 73.7635 1 47.875 1Z" stroke="#035014" stroke-width="1.5"/>
<path d="M63.625 48.375C63.625 43.3749 62.7292 39 61.8333 38.375C61.2593 37.9744 58.4772 37.5739 54.6667 37.3379C52.5315 37.2056 56.4583 33.375 47.5 33.375C38.5417 33.375 42.4684 37.2056 40.3333 37.3379C36.5227 37.5739 33.7408 37.9744 33.1667 38.375C32.2708 39 31.375 43.3749 31.375 48.375C31.375 53.3751 32.2708 57.75 33.1667 58.3749C34.0625 59.0001 40.3333 59.625 47.5 59.625C54.6667 59.625 60.9375 59.0001 61.8333 58.3749C62.7292 57.75 63.625 53.3751 63.625 48.375Z" stroke="#035014" stroke-width="1.5" stroke-linecap="round" stroke-linejoin="round"/>
<path d="M47.5 54C50.4686 54 52.875 51.4817 52.875 48.375C52.875 45.2683 50.4686 42.75 47.5 42.75C44.5314 42.75 42.125 45.2683 42.125 48.375C42.125 51.4817 44.5314 54 47.5 54Z" stroke="#035014" stroke-width="1.5" stroke-linecap="round" stroke-linejoin="round"/>
</svg>
