<svg width="15" height="16" viewBox="0 0 15 16" fill="none" xmlns="http://www.w3.org/2000/svg">
<path d="M12.0186 0.529233L5.19445 7.81885C4.93381 8.09577 4.72718 8.42516 4.58652 8.78796C4.44586 9.15076 4.37397 9.53976 4.37501 9.93244V10.7354C4.37501 10.894 4.43398 11.0461 4.53895 11.1582C4.64392 11.2703 4.78629 11.3333 4.93473 11.3333H5.68644C6.05405 11.3344 6.41821 11.2576 6.75784 11.1074C7.09747 10.9571 7.40583 10.7364 7.66506 10.458L14.4892 3.16837C14.8163 2.8181 15 2.34355 15 1.8488C15 1.35405 14.8163 0.879502 14.4892 0.529233C14.1565 0.189561 13.7141 0 13.2539 0C12.7937 0 12.3512 0.189561 12.0186 0.529233ZM13.6978 2.32294L6.87361 9.61256C6.558 9.94764 6.13143 10.1363 5.68644 10.1375H5.49446V9.93244C5.49562 9.4571 5.67221 9.00143 5.98589 8.66429L12.81 1.37467C12.9296 1.25267 13.0886 1.18459 13.2539 1.18459C13.4192 1.18459 13.5782 1.25267 13.6978 1.37467C13.8153 1.50053 13.8813 1.67104 13.8813 1.8488C13.8813 2.02656 13.8153 2.19707 13.6978 2.32294Z" fill="#B6E5B9"/>
<path fill-rule="evenodd" clip-rule="evenodd" d="M8.125 1.2C8.125 0.537258 7.58774 0 6.925 0H5C2.23858 0 0 2.23858 0 5V11C0 13.7614 2.23858 16 5 16H10C12.7614 16 15 13.7614 15 11V8.53333C15 7.87059 14.4627 7.33333 13.8 7.33333C13.1373 7.33333 12.6 7.87059 12.6 8.53333V11C12.6 12.4359 11.4359 13.6 10 13.6H5C3.56406 13.6 2.4 12.4359 2.4 11V5C2.4 3.56406 3.56406 2.4 5 2.4H6.925C7.58774 2.4 8.125 1.86274 8.125 1.2Z" fill="#B6E5B9"/>
</svg>
