<?xml version="1.0" encoding="UTF-8"?>
<!DOCTYPE svg PUBLIC "-//W3C//DTD SVG 1.1//EN" "http://www.w3.org/Graphics/SVG/1.1/DTD/svg11.dtd">
<svg xmlns="http://www.w3.org/2000/svg" version="1.1" width="264px" height="264px" style="shape-rendering:geometricPrecision; text-rendering:geometricPrecision; image-rendering:optimizeQuality; fill-rule:evenodd; clip-rule:evenodd" xmlns:xlink="http://www.w3.org/1999/xlink">
<g><path style="opacity:0.991" fill="#ff5a54" d="M 255.5,133.5 C 235.5,113.833 215.5,94.1667 195.5,74.5C 189.244,65.925 181.577,64.425 172.5,70C 158.986,83.6808 145.319,97.1808 131.5,110.5C 117.345,96.5123 103.012,82.679 88.5,69C 78.8136,64.2593 71.6469,66.7593 67,76.5C 66.1771,80.7384 66.8438,84.7384 69,88.5C 82.679,103.012 96.5123,117.345 110.5,131.5C 97.5413,144.959 84.3747,158.292 71,171.5C 64.3108,180.654 65.4775,188.654 74.5,195.5C 94.1667,215.5 113.833,235.5 133.5,255.5C 81.4648,254.594 43.2982,231.26 19,185.5C -2.33325,134.151 5.00008,87.4843 41,45.5C 83.2853,5.59608 131.452,-3.23726 185.5,19C 231.26,43.2982 254.594,81.4648 255.5,133.5 Z"/></g>
<g><path style="opacity:1" fill="#fefbfb" d="M 195.5,74.5 C 197.021,79.3561 196.521,84.0228 194,88.5C 179.698,102.491 165.864,116.825 152.5,131.5C 166.139,145.473 179.806,159.473 193.5,173.5C 199.238,185.933 195.405,193.599 182,196.5C 179.268,196.385 176.768,195.552 174.5,194C 160.5,181.333 147.167,168 134.5,154C 133.5,153.5 132.5,153 131.5,152.5C 117.209,166.324 102.875,180.158 88.5,194C 84.0228,196.521 79.3561,197.021 74.5,195.5C 65.4775,188.654 64.3108,180.654 71,171.5C 84.3747,158.292 97.5413,144.959 110.5,131.5C 96.5123,117.345 82.679,103.012 69,88.5C 66.8438,84.7384 66.1771,80.7384 67,76.5C 71.6469,66.7593 78.8136,64.2593 88.5,69C 103.012,82.679 117.345,96.5123 131.5,110.5C 145.319,97.1808 158.986,83.6808 172.5,70C 181.577,64.425 189.244,65.925 195.5,74.5 Z"/></g>
<g><path style="opacity:0.999" fill="#db3a3c" d="M 195.5,74.5 C 215.5,94.1667 235.5,113.833 255.5,133.5C 253.261,183.834 229.928,220.667 185.5,244C 169.079,251.939 151.745,255.772 133.5,255.5C 113.833,235.5 94.1667,215.5 74.5,195.5C 79.3561,197.021 84.0228,196.521 88.5,194C 102.875,180.158 117.209,166.324 131.5,152.5C 132.5,153 133.5,153.5 134.5,154C 147.167,168 160.5,181.333 174.5,194C 176.768,195.552 179.268,196.385 182,196.5C 195.405,193.599 199.238,185.933 193.5,173.5C 179.806,159.473 166.139,145.473 152.5,131.5C 165.864,116.825 179.698,102.491 194,88.5C 196.521,84.0228 197.021,79.3561 195.5,74.5 Z"/></g>
</svg>
