<svg width="57" height="51" viewBox="0 0 57 51" fill="none" xmlns="http://www.w3.org/2000/svg">
<path d="M30.2188 22.4375V27.0313L26.7812 28.5625" stroke="#035014" stroke-width="1.5" stroke-linecap="round" stroke-linejoin="round"/>
<path d="M38.8125 13.25V19.375" stroke="#035014" stroke-width="1.5" stroke-linecap="round" stroke-linejoin="round"/>
<path d="M18.1875 13.25V19.375" stroke="#035014" stroke-width="1.5" stroke-linecap="round" stroke-linejoin="round"/>
<path d="M18.1875 50H4.4375C2.53904 50 1 48.6289 1 46.9375V34.6875" stroke="#035014" stroke-width="1.5" stroke-linecap="round" stroke-linejoin="round"/>
<path d="M56 34.6875V46.9375C56 48.6289 54.461 50 52.5625 50H38.8125" stroke="#035014" stroke-width="1.5" stroke-linecap="round" stroke-linejoin="round"/>
<path d="M56 16.3125V4.0625C56 2.37114 54.461 1 52.5625 1H38.8125" stroke="#035014" stroke-width="1.5" stroke-linecap="round" stroke-linejoin="round"/>
<path d="M1 16.3125V4.0625C1 2.37114 2.53904 1 4.4375 1H18.1875" stroke="#035014" stroke-width="1.5" stroke-linecap="round" stroke-linejoin="round"/>
<path d="M18.1875 37.75C18.1875 37.75 21.625 40.8125 28.5 40.8125C35.375 40.8125 38.8125 37.75 38.8125 37.75" stroke="#035014" stroke-width="1.5" stroke-linecap="round" stroke-linejoin="round"/>
</svg>
