<?xml version="1.0" encoding="UTF-8"?>
<!DOCTYPE svg PUBLIC "-//W3C//DTD SVG 1.1//EN" "http://www.w3.org/Graphics/SVG/1.1/DTD/svg11.dtd">
<svg xmlns="http://www.w3.org/2000/svg" version="1.1" width="276px" height="276px" style="shape-rendering:geometricPrecision; text-rendering:geometricPrecision; image-rendering:optimizeQuality; fill-rule:evenodd; clip-rule:evenodd" xmlns:xlink="http://www.w3.org/1999/xlink">
<g><path style="opacity:0.99" fill="#eeeeee" d="M 57.5,237.5 C 55.7358,225.286 49.0691,221.286 37.5,225.5C 19.8267,213.173 8.32666,196.506 3,175.5C 0.285987,159.497 2.95265,144.497 11,130.5C 22.9205,114.322 34.0872,97.655 44.5,80.5C 45.3326,120.665 45.8326,160.998 46,201.5C 46.9002,206.737 49.7336,210.571 54.5,213C 71.695,219.01 89.0283,224.51 106.5,229.5C 114.839,228.997 120.006,224.664 122,216.5C 122.498,213.183 122.665,209.85 122.5,206.5C 133.245,206.929 143.912,206.429 154.5,205C 162.364,201.766 166.697,195.933 167.5,187.5C 168.495,175.345 168.829,163.011 168.5,150.5C 164.5,150.5 160.5,150.5 156.5,150.5C 156.5,162.5 156.5,174.5 156.5,186.5C 155.957,189.754 154.29,192.254 151.5,194C 141.839,194.5 132.172,194.666 122.5,194.5C 122.667,154.165 122.5,113.832 122,73.5C 121.064,69.7926 119.231,66.6259 116.5,64C 111.668,61.6677 106.668,59.8343 101.5,58.5C 117.325,57.5036 133.325,57.1703 149.5,57.5C 153.385,58.2627 155.719,60.596 156.5,64.5C 156.5,76.8333 156.5,89.1667 156.5,101.5C 160.5,101.5 164.5,101.5 168.5,101.5C 168.829,88.3226 168.495,75.3226 167.5,62.5C 165.762,53.5941 160.429,48.0941 151.5,46C 120.997,45.8324 90.6639,45.3324 60.5,44.5C 64.7631,24.365 77.0965,12.865 97.5,10C 116.182,8.11376 134.182,10.7804 151.5,18C 203.617,38.7841 241.45,74.6174 265,125.5C 280.792,167.947 273.625,205.78 243.5,239C 226.381,254.071 206.381,262.738 183.5,265C 139.024,266.879 97.0245,257.713 57.5,237.5 Z"/></g>
<g><path style="opacity:0.943" fill="#a5b0c3" d="M 202.5,27.5 C 203.873,27.3433 205.207,27.51 206.5,28C 209.667,31.1667 212.833,34.3333 216,37.5C 216.667,38.1667 216.667,38.8333 216,39.5C 213.833,40.3333 212.333,41.8333 211.5,44C 206.378,42.1148 202.211,38.6148 199,33.5C 198.333,32.8333 198.333,32.1667 199,31.5C 200.376,30.2949 201.542,28.9616 202.5,27.5 Z"/></g>
<g><path style="opacity:0.973" fill="#a4aec1" d="M 238.5,27.5 C 241.827,27.9865 244.161,29.8198 245.5,33C 242.365,37.3023 238.699,41.1356 234.5,44.5C 232.167,42.8333 230.167,40.8333 228.5,38.5C 231.855,34.8133 235.189,31.1466 238.5,27.5 Z"/></g>
<g><path style="opacity:0.994" fill="#050606" d="M 60.5,44.5 C 90.6639,45.3324 120.997,45.8324 151.5,46C 160.429,48.0941 165.762,53.5941 167.5,62.5C 167.5,75.1667 167.5,87.8333 167.5,100.5C 164.167,100.5 160.833,100.5 157.5,100.5C 157.828,88.3217 157.495,76.3217 156.5,64.5C 155.719,60.596 153.385,58.2627 149.5,57.5C 132.672,56.3383 115.672,56.1716 98.5,57C 99.2438,58.0386 100.244,58.5386 101.5,58.5C 106.668,59.8343 111.668,61.6677 116.5,64C 119.231,66.6259 121.064,69.7926 122,73.5C 122.5,113.832 122.667,154.165 122.5,194.5C 132.172,194.666 141.839,194.5 151.5,194C 154.29,192.254 155.957,189.754 156.5,186.5C 157.495,175.012 157.828,163.345 157.5,151.5C 160.833,151.5 164.167,151.5 167.5,151.5C 167.5,163.5 167.5,175.5 167.5,187.5C 166.697,195.933 162.364,201.766 154.5,205C 143.912,206.429 133.245,206.929 122.5,206.5C 122.665,209.85 122.498,213.183 122,216.5C 120.006,224.664 114.839,228.997 106.5,229.5C 89.0283,224.51 71.695,219.01 54.5,213C 49.7336,210.571 46.9002,206.737 46,201.5C 45.8326,160.998 45.3326,120.665 44.5,80.5C 44.0901,71.7502 44.5901,63.0836 46,54.5C 49.0353,48.6417 53.8687,45.3084 60.5,44.5 Z"/></g>
<g><path style="opacity:1" fill="#7f7f7e" d="M 149.5,57.5 C 133.325,57.1703 117.325,57.5036 101.5,58.5C 100.244,58.5386 99.2438,58.0386 98.5,57C 115.672,56.1716 132.672,56.3383 149.5,57.5 Z"/></g>
<g><path style="opacity:1" fill="#00b06c" d="M 70.5,60.5 C 69.1669,83.657 68.5002,107.157 68.5,131C 68.6667,154.5 68.8333,178 69,201.5C 69.8466,203.193 70.6799,204.86 71.5,206.5C 66.2757,205.372 61.4424,203.372 57,200.5C 56.3333,153.5 56.3333,106.5 57,59.5C 61.6868,56.8581 66.1868,57.1914 70.5,60.5 Z"/></g>
<g><path style="opacity:0.953" fill="#a7b1c4" d="M 234.5,58.5 C 239.668,60.9864 244.001,64.653 247.5,69.5C 245.833,71.8333 243.833,73.8333 241.5,75.5C 236.84,72.4693 232.84,68.8026 229.5,64.5C 231.19,62.4807 232.856,60.4807 234.5,58.5 Z"/></g>
<g><path style="opacity:1" fill="#2ede83" d="M 70.5,60.5 C 83.8214,64.3293 96.9881,68.6627 110,73.5C 110.667,121.167 110.667,168.833 110,216.5C 107.599,217.602 105.099,217.769 102.5,217C 92.0904,213.586 81.757,210.086 71.5,206.5C 70.6799,204.86 69.8466,203.193 69,201.5C 68.8333,178 68.6667,154.5 68.5,131C 68.5002,107.157 69.1669,83.657 70.5,60.5 Z"/></g>
<g><path style="opacity:1" fill="#a7b2c3" d="M 207.5,59.5 C 210.215,60.0483 212.215,61.5483 213.5,64C 210.699,67.9684 207.366,71.4684 203.5,74.5C 201.5,73.1667 199.833,71.5 198.5,69.5C 201.522,66.1467 204.522,62.8134 207.5,59.5 Z"/></g>
<g><path style="opacity:1" fill="#484848" d="M 167.5,62.5 C 168.495,75.3226 168.829,88.3226 168.5,101.5C 164.5,101.5 160.5,101.5 156.5,101.5C 156.5,89.1667 156.5,76.8333 156.5,64.5C 157.495,76.3217 157.828,88.3217 157.5,100.5C 160.833,100.5 164.167,100.5 167.5,100.5C 167.5,87.8333 167.5,75.1667 167.5,62.5 Z"/></g>
<g><path style="opacity:1" fill="#020202" d="M 208.5,132.5 C 190.243,131.501 171.243,131.168 151.5,131.5C 151.5,127.833 151.5,124.167 151.5,120.5C 171.243,120.832 190.243,120.499 208.5,119.5C 202.855,113.52 197.188,107.52 191.5,101.5C 193.817,98.6826 196.317,96.0159 199,93.5C 209,103.5 219,113.5 229,123.5C 229.667,125.167 229.667,126.833 229,128.5C 219,138.5 209,148.5 199,158.5C 196.317,155.984 193.817,153.317 191.5,150.5C 197.188,144.48 202.855,138.48 208.5,132.5 Z"/></g>
<g><path style="opacity:1" fill="#a6a6a6" d="M 208.5,119.5 C 190.243,120.499 171.243,120.832 151.5,120.5C 151.5,124.167 151.5,127.833 151.5,131.5C 171.243,131.168 190.243,131.501 208.5,132.5C 189.167,132.5 169.833,132.5 150.5,132.5C 150.5,128.167 150.5,123.833 150.5,119.5C 169.833,119.5 189.167,119.5 208.5,119.5 Z"/></g>
<g><path style="opacity:1" fill="#494948" d="M 167.5,187.5 C 167.5,175.5 167.5,163.5 167.5,151.5C 164.167,151.5 160.833,151.5 157.5,151.5C 157.828,163.345 157.495,175.012 156.5,186.5C 156.5,174.5 156.5,162.5 156.5,150.5C 160.5,150.5 164.5,150.5 168.5,150.5C 168.829,163.011 168.495,175.345 167.5,187.5 Z"/></g>
<g><path style="opacity:0.98" fill="#a4afc1" d="M 57.5,237.5 C 56.2993,244.024 52.2993,247.357 45.5,247.5C 34.7553,245.354 31.2553,239.02 35,228.5C 36.045,227.627 36.8783,226.627 37.5,225.5C 49.0691,221.286 55.7358,225.286 57.5,237.5 Z M 43.5,232.5 C 49.1755,232.86 49.8421,234.86 45.5,238.5C 42.6095,237.163 41.9428,235.163 43.5,232.5 Z"/></g>
</svg>
